# xmcd
#
# Track frame offsets:
#	150
#	15812
#	28132
#	45232
#	57687
#	76952
#	96050
#	107840
#	124407
#	131630
#	144600
#	153490
#	168997
#	182847
#	192885
#	203012
#	219545
#	231750
#	244112
#	259442
#
# Disc length: 3662
#
# Revision: 3
# Processed by: cddbd v1.5.1PL0 Copyright (c) Steve Scherf et al.
# Submitted via: CDmax 1.8
# Normalized: r2:DSETVAR1
#
DISCID=1a0e4c14
DTITLE=Various Artist - Country Christmas
DYEAR=1900
DGENRE=Misc
TTITLE0=Johnny Paycheck - Honky Tonk Christmas
TTITLE1=Glen Campbell - Winter Wonderland
TTITLE2=Johnny Cash - White Christmas
TTITLE3=Roy Clark - Jingle Bells
TTITLE4=Lynn Anderson - The First Noel
TTITLE5=Johnny Cash - What Child is This
TTITLE6=Glen Campbell - Frosty The Snowman
TTITLE7=Faron Young - O Little Town Of Bethlehem
TTITLE8=Glen Campbell - Here Comes Santa Claus
TTITLE9=Dave Dudley - Can I Sing A Christmas Song For You
TTITLE10=Glen Campbell - God Rest Ye Merry Gentlemen
TTITLE11=Connie Smith - What Child Is This
TTITLE12=Moe Bandy - I´ll Be Home For Christmas
TTITLE13=Glen Campbell - Santa Claus Is Coming To Town
TTITLE14=Dave Dudley - Six Tons Of Toys
TTITLE15=Vikki Carr - It Must Have Been The Mistletoe
TTITLE16=Jimmy Sturr - Church Bells Are Ringing
TTITLE17=Moe Bandy - Away In A Manger
TTITLE18=Johnny Paycheck - Christmas Is
TTITLE19=Johnny Cash - Silent Night
EXTD=
EXTT0=
EXTT1=
EXTT2=
EXTT3=
EXTT4=
EXTT5=
EXTT6=
EXTT7=
EXTT8=
EXTT9=
EXTT10=
EXTT11=
EXTT12=
EXTT13=
EXTT14=
EXTT15=
EXTT16=
EXTT17=
EXTT18=
EXTT19=
PLAYORDER=
